<?xml version="1.0" standalone="no"?>
<!DOCTYPE svg PUBLIC "-//W3C//DTD SVG 20010904//EN"
 "http://www.w3.org/TR/2001/REC-SVG-20010904/DTD/svg10.dtd">
<svg version="1.0" xmlns="http://www.w3.org/2000/svg"
 width="162.000000pt" height="200.000000pt" viewBox="0 0 162.000000 200.000000"
 preserveAspectRatio="xMidYMid meet">

<g transform="translate(0.000000,200.000000) scale(0.100000,-0.100000)"
fill="#000000" stroke="none">
<path d="M0 1000 l0 -1001 613 3 612 3 49 29 c38 22 53 39 72 81 l24 53 -2
850 -3 850 -30 43 c-17 24 -46 52 -65 64 -34 19 -51 20 -652 23 l-618 3 0
-1001z m860 735 c0 -8 -6 -15 -13 -15 -8 0 -14 7 -14 15 0 8 6 15 14 15 7 0
13 -7 13 -15z m-300 -24 c0 -14 -18 -23 -30 -16 -6 4 -8 11 -5 16 8 12 35 12
35 0z m526 -32 c3 -6 1 -16 -5 -22 -9 -9 -11 -8 -6 5 4 11 0 18 -12 21 -15 4
-16 5 -1 6 9 0 20 -4 24 -10z m-428 -16 c5 -18 -28 -29 -38 -12 -5 7 -6 17 -3
22 7 12 35 5 41 -10z m549 -23 c-1 -12 -5 -16 -10 -11 -5 5 -6 14 -3 20 11 16
15 13 13 -9z m-399 -13 c2 -10 -3 -17 -11 -17 -16 0 -30 24 -19 34 10 10 27 1
30 -17z m-293 -7 c-3 -5 -10 -10 -16 -10 -5 0 -9 5 -9 10 0 6 7 10 16 10 8 0
12 -4 9 -10z m415 -14 c0 -11 -19 -15 -25 -6 -3 5 1 10 9 10 9 0 16 -2 16 -4z
m174 -4 c3 -5 -1 -9 -9 -9 -8 0 -12 4 -9 9 3 4 7 8 9 8 2 0 6 -4 9 -8z m-424
-22 c0 -5 -4 -10 -10 -10 -5 0 -10 5 -10 10 0 6 5 10 10 10 6 0 10 -4 10 -10z
m349 -15 c3 -19 3 -19 -16 -2 -11 9 -23 14 -28 10 -4 -5 -5 -2 -1 5 11 19 40
10 45 -13z m-471 -22 c-2 -10 -10 -18 -18 -18 -8 0 -16 8 -18 18 -2 12 3 17
18 17 15 0 20 -5 18 -17z m328 6 c3 -6 0 -17 -7 -25 -12 -11 -16 -9 -26 11
-10 22 -9 25 7 25 11 0 22 -5 26 -11z m272 -11 c8 -10 4 -13 -14 -13 -24 0
-30 6 -17 18 10 10 19 8 31 -5z m-398 -12 c0 -21 -21 -31 -31 -15 -14 22 -11
29 11 29 11 0 20 -6 20 -14z m-105 -46 c0 -33 -27 -37 -41 -6 -13 29 -8 38 21
34 14 -2 20 -10 20 -28z m-405 4 c0 -17 -22 -14 -28 4 -2 7 3 12 12 12 9 0 16
-7 16 -16z m275 -1 c9 -9 15 -26 12 -39 -3 -16 3 -25 19 -33 13 -5 30 -21 39
-35 10 -14 22 -23 31 -19 8 3 22 2 32 -2 9 -5 23 -9 31 -11 21 -4 31 -27 19
-41 -13 -16 -35 -17 -40 -1 -2 6 -10 8 -16 4 -9 -5 -8 -15 4 -37 8 -17 13 -38
9 -46 -3 -9 2 -24 12 -35 18 -20 34 -167 26 -243 l-4 -40 91 94 c111 114 170
213 170 282 0 41 3 48 24 53 33 8 56 -2 56 -25 0 -16 -3 -18 -18 -10 -28 15
-47 -7 -26 -30 23 -25 15 -73 -13 -77 -23 -3 -32 -27 -13 -34 15 -5 -81 -141
-108 -153 -12 -5 -22 -14 -22 -20 0 -11 -126 -140 -137 -140 -4 0 -8 -16 -10
-35 -7 -71 -36 -230 -79 -433 -24 -114 -44 -210 -44 -212 0 -9 -39 -5 -45 4
-3 6 19 133 49 283 l55 272 -97 101 c-116 120 -182 195 -182 207 0 20 -31 68
-44 68 -19 0 -29 30 -12 36 10 4 12 17 8 46 -4 32 -1 44 13 54 17 13 17 15 2
32 -18 19 -22 59 -9 78 11 17 45 25 62 14 9 -5 19 -5 27 2 15 12 43 4 43 -13
0 -6 -9 -13 -20 -16 -12 -3 -20 -14 -20 -27 0 -12 -11 -32 -24 -44 -22 -18
-24 -28 -21 -74 2 -39 -1 -55 -12 -64 -20 -14 -7 -37 18 -31 12 3 20 -2 24
-14 15 -45 221 -279 246 -279 5 0 9 21 8 48 0 26 -3 41 -6 35 -5 -15 -39 -17
-47 -4 -10 16 5 41 25 41 10 0 19 -4 19 -10 0 -5 5 -10 10 -10 6 0 10 7 10 15
0 8 5 15 10 15 6 0 10 7 10 15 0 8 -5 15 -11 15 -8 0 -10 23 -7 75 3 41 1 75
-3 75 -4 0 -11 20 -15 45 -3 26 -12 45 -19 45 -7 0 -18 7 -25 15 -10 12 -9 16
4 21 11 4 14 13 11 24 -4 12 1 22 11 28 25 14 10 44 -20 40 -16 -2 -36 7 -58
27 -18 17 -46 35 -63 40 -40 14 -56 57 -30 85 22 24 58 26 80 3z m435 -8 c0
-8 6 -15 14 -15 8 0 22 -7 30 -16 37 -36 1 -103 -48 -90 -14 3 -27 2 -30 -3
-7 -11 -46 -2 -46 11 0 5 9 12 20 15 14 4 19 11 15 22 -3 9 2 26 10 37 19 25
19 34 -1 34 -8 0 -12 5 -9 10 10 16 45 12 45 -5z m120 1 c0 -9 -7 -12 -20 -9
-11 3 -20 9 -20 14 0 5 9 9 20 9 11 0 20 -6 20 -14z m-225 -35 c0 -13 -6 -26
-14 -29 -8 -3 -11 0 -7 6 3 6 -3 17 -14 25 -23 16 -15 29 15 25 14 -2 20 -10
20 -27z m-495 -26 c0 -19 -20 -29 -32 -17 -15 15 -2 43 17 36 8 -3 15 -12 15
-19z m324 6 c9 -13 -4 -41 -18 -41 -18 0 -35 21 -29 36 6 16 39 19 47 5z m59
-17 c9 -10 -4 -34 -18 -34 -17 0 -28 17 -20 30 7 11 28 13 38 4z m67 -22 c0
-13 -12 -22 -22 -16 -10 6 -1 24 13 24 5 0 9 -4 9 -8z m300 -2 c0 -5 -2 -10
-4 -10 -3 0 -8 5 -11 10 -3 6 -1 10 4 10 6 0 11 -4 11 -10z m-837 -17 c11 -10
-13 -32 -29 -26 -20 8 -17 33 4 33 10 0 22 -3 25 -7z m977 -8 c0 -8 -7 -15
-15 -15 -8 0 -15 7 -15 15 0 8 7 15 15 15 8 0 15 -7 15 -15z m-426 -34 c22
-24 6 -35 -28 -20 -26 12 -31 20 -19 32 11 12 29 7 47 -12z m-264 -11 c14 -27
-4 -60 -33 -60 -12 0 -29 -4 -36 -9 -19 -12 -51 4 -51 25 0 8 11 19 24 23 13
5 26 17 29 25 9 23 54 20 67 -4z m377 -15 c4 -28 -43 -61 -62 -45 -8 6 -19 8
-26 4 -7 -4 -10 -2 -7 6 2 8 13 18 24 24 10 6 23 17 27 24 12 19 42 10 44 -13z
m185 8 c13 9 21 8 30 -1 14 -14 7 -23 -21 -25 -14 -1 -21 -8 -21 -22 0 -31
-32 -47 -59 -29 -11 8 -21 24 -21 34 0 25 39 52 58 41 10 -5 23 -4 34 2z
m-382 -53 c0 -5 9 -10 20 -10 11 0 24 -8 28 -17 4 -10 14 -18 22 -18 8 0 16
-8 18 -17 3 -14 -4 -17 -41 -15 -36 2 -49 8 -71 33 -33 40 -33 54 -1 54 14 0
25 -4 25 -10z m-490 -50 c0 -5 -4 -10 -9 -10 -6 0 -13 5 -16 10 -3 6 1 10 9
10 9 0 16 -4 16 -10z m660 -5 c0 -8 -4 -15 -9 -15 -13 0 -22 16 -14 24 11 11
23 6 23 -9z m-384 -10 c4 -8 0 -22 -7 -31 -11 -13 -14 -13 -27 0 -17 17 -9 46
13 46 9 0 18 -7 21 -15z m634 -10 c0 -8 -7 -15 -15 -15 -8 0 -15 7 -15 15 0 8
7 15 15 15 8 0 15 -7 15 -15z m-726 -14 c10 -16 -5 -41 -24 -41 -19 0 -34 25
-24 41 3 5 14 9 24 9 10 0 21 -4 24 -9z m444 -15 c6 -29 -15 -43 -35 -24 -14
14 -14 20 -3 33 16 19 34 15 38 -9z m-698 -7 c0 -5 -7 -9 -15 -9 -15 0 -20 12
-9 23 8 8 24 -1 24 -14z m850 -4 c0 -19 -20 -29 -32 -17 -8 8 -7 16 2 26 14
17 30 12 30 -9z m-464 -21 c-3 -7 0 -16 5 -20 7 -4 7 -10 1 -16 -6 -6 -20 0
-38 17 -28 26 -28 27 -10 41 22 16 51 1 42 -22z m232 -16 c21 -21 14 -48 -11
-48 -28 0 -67 26 -67 46 0 18 61 19 78 2z m202 -12 c6 -8 10 -25 8 -38 -4 -30
-46 -38 -65 -12 -17 23 -16 29 3 48 19 20 38 20 54 2z m-516 -29 c8 -13 7 -20
-4 -27 -20 -12 -45 12 -36 35 7 20 25 16 40 -8z m151 13 c3 -5 -1 -10 -10 -10
-9 0 -13 5 -10 10 3 6 8 10 10 10 2 0 7 -4 10 -10z m-25 -26 c11 -12 10 -18
-3 -32 -16 -15 -18 -15 -34 0 -13 14 -14 20 -3 32 7 9 16 16 20 16 4 0 13 -7
20 -16z m140 -48 c-6 -6 -15 -4 -25 4 -23 19 -18 29 9 17 15 -7 21 -16 16 -21z
m-189 9 c-1 -15 -24 -12 -29 3 -3 9 2 13 12 10 10 -1 17 -7 17 -13z m427 -27
c-6 -18 -28 -21 -28 -4 0 9 7 16 16 16 9 0 14 -5 12 -12z m-433 -28 c0 -8 -8
-16 -17 -18 -13 -2 -18 3 -18 18 0 15 5 20 18 18 9 -2 17 -10 17 -18z m-217
-22 c-6 -18 -28 -21 -28 -4 0 9 7 16 16 16 9 0 14 -5 12 -12z m521 -22 c9 -10
8 -16 -4 -26 -17 -14 -45 -7 -45 13 0 29 30 37 49 13z"/>
<path d="M342 1328 c5 -15 28 -18 29 -3 0 6 -7 12 -17 13 -10 3 -15 -1 -12
-10z"/>
<path d="M900 1090 c0 -5 5 -10 10 -10 6 0 10 5 10 10 0 6 -4 10 -10 10 -5 0
-10 -4 -10 -10z"/>
<path d="M1445 1964 c57 -84 56 -66 53 -985 l-3 -844 -22 -45 c-12 -25 -30
-55 -39 -67 -16 -23 -16 -23 17 -17 67 12 119 52 145 109 l24 53 -2 850 -3
850 -30 43 c-34 49 -73 74 -128 84 l-38 7 26 -38z"/>
</g>
</svg>
